<svg width="20" height="20" viewBox="0 0 20 20" fill="none" xmlns="http://www.w3.org/2000/svg">
<path d="M10.1399 0.0009291C4.51611 -0.0750253 -0.0750289 4.51589 0.000929144 10.1394C0.0759257 15.5326 4.46755 19.9241 9.86105 19.999C15.4858 20.076 20.076 15.485 19.999 9.86154C19.925 4.46734 15.5334 0.075922 10.1399 0.0009291ZM16.2175 15.7326C16.1983 15.7533 16.1749 15.7696 16.1487 15.7802C16.1226 15.7908 16.0945 15.7956 16.0663 15.7941C16.0381 15.7926 16.0106 15.785 15.9857 15.7717C15.9609 15.7584 15.9392 15.7398 15.9223 15.7172C15.4923 15.1547 14.9657 14.673 14.3671 14.2948C13.1431 13.5093 11.5922 13.0766 10.0005 13.0766C8.40872 13.0766 6.85782 13.5093 5.63384 14.2948C5.03525 14.6729 4.50865 15.1543 4.07863 15.7168C4.06173 15.7393 4.04008 15.7579 4.01519 15.7712C3.99031 15.7845 3.96281 15.7922 3.93464 15.7936C3.90647 15.7951 3.87833 15.7903 3.8522 15.7797C3.82607 15.7691 3.8026 15.7528 3.78345 15.7321C2.37278 14.2094 1.57369 12.2196 1.53932 10.1442C1.46096 5.46628 5.29972 1.55078 9.9798 1.53925C14.6599 1.52771 18.4616 5.32783 18.4616 9.99999C18.4632 12.1255 17.6617 14.1731 16.2175 15.7326Z" fill="black"/>
<path d="M10.0005 4.61588C9.05243 4.61588 8.19526 4.97113 7.58616 5.61675C6.97705 6.26236 6.67274 7.15506 6.74148 8.11315C6.8809 9.99999 8.34285 11.5383 10.0005 11.5383C11.6581 11.5383 13.1172 9.99999 13.2595 8.11363C13.3306 7.16468 13.0287 6.28015 12.4095 5.62251C11.798 4.97354 10.9423 4.61588 10.0005 4.61588Z" fill="black"/>
</svg>
