<svg width="30" height="35" viewBox="0 0 30 35" fill="none" xmlns="http://www.w3.org/2000/svg">
<path d="M29.3693 24.1648C29.2397 24.0086 29.1125 23.8523 28.9876 23.7016C27.2703 21.6227 26.2313 20.368 26.2313 14.4828C26.2313 11.4359 25.5031 8.93594 24.0675 7.06094C23.0091 5.67578 21.5782 4.625 19.6923 3.84844C19.6681 3.83493 19.6464 3.8172 19.6283 3.79609C18.95 1.52266 17.0937 0 15.0002 0C12.9066 0 11.0512 1.52266 10.3728 3.79375C10.3547 3.81408 10.3334 3.83125 10.3096 3.84453C5.90864 5.65781 3.76982 9.13672 3.76982 14.4805C3.76982 20.368 2.73242 21.6227 1.01355 23.6992C0.888659 23.85 0.761423 24.0031 0.631845 24.1625C0.297128 24.5665 0.085057 25.058 0.0207303 25.5789C-0.0435965 26.0997 0.0425136 26.6281 0.26887 27.1016C0.750495 28.1172 1.77697 28.7477 2.94864 28.7477H27.0603C28.2265 28.7477 29.246 28.118 29.7292 27.107C29.9565 26.6335 30.0434 26.1047 29.9797 25.5832C29.9159 25.0617 29.7041 24.5695 29.3693 24.1648ZM15.0002 35C16.1282 34.9991 17.2349 34.6926 18.2029 34.1132C19.171 33.5337 19.9643 32.7028 20.4987 31.7086C20.5239 31.6609 20.5363 31.6076 20.5348 31.5537C20.5333 31.4998 20.5179 31.4473 20.49 31.4011C20.4622 31.355 20.423 31.3168 20.3761 31.2903C20.3292 31.2638 20.2762 31.2499 20.2224 31.25H9.7796C9.72568 31.2498 9.67263 31.2636 9.62562 31.29C9.5786 31.3164 9.53923 31.3546 9.51132 31.4008C9.48342 31.447 9.46794 31.4996 9.46639 31.5535C9.46485 31.6075 9.47728 31.6609 9.50249 31.7086C10.0368 32.7027 10.83 33.5335 11.7979 34.113C12.7658 34.6924 13.8723 34.9989 15.0002 35Z" fill="black"/>
</svg>
