<svg width="20" height="20" viewBox="0 0 20 20" fill="none" xmlns="http://www.w3.org/2000/svg">
<path fill-rule="evenodd" clip-rule="evenodd" d="M2.85714 2.85714C2.06816 2.85714 1.42857 3.49674 1.42857 4.28571V17.1429C1.42857 17.9318 2.06816 18.5714 2.85714 18.5714H17.1429C17.9318 18.5714 18.5714 17.9318 18.5714 17.1429V4.28571C18.5714 3.49674 17.9318 2.85714 17.1429 2.85714H2.85714ZM0 4.28571C0 2.70776 1.27919 1.42857 2.85714 1.42857H17.1429C18.7208 1.42857 20 2.70776 20 4.28571V17.1429C20 18.7208 18.7208 20 17.1429 20H2.85714C1.27919 20 0 18.7208 0 17.1429V4.28571Z" fill="black"/>
<path d="M11.7857 10C12.3774 10 12.8571 9.52031 12.8571 8.92857C12.8571 8.33684 12.3774 7.85714 11.7857 7.85714C11.194 7.85714 10.7143 8.33684 10.7143 8.92857C10.7143 9.52031 11.194 10 11.7857 10Z" fill="black"/>
<path d="M15.3571 10C15.9489 10 16.4286 9.52031 16.4286 8.92857C16.4286 8.33684 15.9489 7.85714 15.3571 7.85714C14.7654 7.85714 14.2857 8.33684 14.2857 8.92857C14.2857 9.52031 14.7654 10 15.3571 10Z" fill="black"/>
<path d="M11.7857 13.5714C12.3774 13.5714 12.8571 13.0917 12.8571 12.5C12.8571 11.9083 12.3774 11.4286 11.7857 11.4286C11.194 11.4286 10.7143 11.9083 10.7143 12.5C10.7143 13.0917 11.194 13.5714 11.7857 13.5714Z" fill="black"/>
<path d="M15.3571 13.5714C15.9489 13.5714 16.4286 13.0917 16.4286 12.5C16.4286 11.9083 15.9489 11.4286 15.3571 11.4286C14.7654 11.4286 14.2857 11.9083 14.2857 12.5C14.2857 13.0917 14.7654 13.5714 15.3571 13.5714Z" fill="black"/>
<path d="M4.64286 13.5714C5.23459 13.5714 5.71429 13.0917 5.71429 12.5C5.71429 11.9083 5.23459 11.4286 4.64286 11.4286C4.05112 11.4286 3.57143 11.9083 3.57143 12.5C3.57143 13.0917 4.05112 13.5714 4.64286 13.5714Z" fill="black"/>
<path d="M8.21429 13.5714C8.80602 13.5714 9.28571 13.0917 9.28571 12.5C9.28571 11.9083 8.80602 11.4286 8.21429 11.4286C7.62255 11.4286 7.14286 11.9083 7.14286 12.5C7.14286 13.0917 7.62255 13.5714 8.21429 13.5714Z" fill="black"/>
<path d="M4.64286 17.1429C5.23459 17.1429 5.71429 16.6632 5.71429 16.0714C5.71429 15.4797 5.23459 15 4.64286 15C4.05112 15 3.57143 15.4797 3.57143 16.0714C3.57143 16.6632 4.05112 17.1429 4.64286 17.1429Z" fill="black"/>
<path d="M8.21429 17.1429C8.80602 17.1429 9.28571 16.6632 9.28571 16.0714C9.28571 15.4797 8.80602 15 8.21429 15C7.62255 15 7.14286 15.4797 7.14286 16.0714C7.14286 16.6632 7.62255 17.1429 8.21429 17.1429Z" fill="black"/>
<path d="M11.7857 17.1429C12.3774 17.1429 12.8571 16.6632 12.8571 16.0714C12.8571 15.4797 12.3774 15 11.7857 15C11.194 15 10.7143 15.4797 10.7143 16.0714C10.7143 16.6632 11.194 17.1429 11.7857 17.1429Z" fill="black"/>
<path fill-rule="evenodd" clip-rule="evenodd" d="M4.28571 0C4.6802 0 5 0.319797 5 0.714286V2.14286C5 2.53735 4.6802 2.85714 4.28571 2.85714C3.89123 2.85714 3.57143 2.53735 3.57143 2.14286V0.714286C3.57143 0.319797 3.89123 0 4.28571 0ZM15.7143 0C16.1088 0 16.4286 0.319797 16.4286 0.714286V2.14286C16.4286 2.53735 16.1088 2.85714 15.7143 2.85714C15.3198 2.85714 15 2.53735 15 2.14286V0.714286C15 0.319797 15.3198 0 15.7143 0Z" fill="black"/>
<path fill-rule="evenodd" clip-rule="evenodd" d="M0.714286 5H19.2857V6.42857H0.714286V5Z" fill="black"/>
</svg>
