<svg width="21" height="23" viewBox="0 0 21 23" fill="none" xmlns="http://www.w3.org/2000/svg">
<path fill-rule="evenodd" clip-rule="evenodd" d="M2.25 1.53333C2.05109 1.53333 1.86032 1.61411 1.71967 1.75788C1.57902 1.90166 1.5 2.09667 1.5 2.3V21.4667H6V19.1667C6 18.7432 6.33579 18.4 6.75 18.4C7.16421 18.4 7.5 18.7432 7.5 19.1667V21.4667H12V2.3C12 2.09667 11.921 1.90166 11.7803 1.75788C11.6397 1.61411 11.4489 1.53333 11.25 1.53333H2.25ZM13.5 7.66667V2.3C13.5 1.69 13.2629 1.10499 12.841 0.673654C12.419 0.242321 11.8467 0 11.25 0H2.25C1.65326 0 1.08097 0.242321 0.65901 0.673654C0.237053 1.10499 0 1.69 0 2.3V22.2333C0 22.6568 0.335786 23 0.75 23H12.5625C12.5956 23 12.6285 22.9982 12.6612 22.9947C12.6903 22.9982 12.7199 23 12.75 23H20.25C20.6642 23 21 22.6568 21 22.2333V9.96667C21 9.35667 20.7629 8.77166 20.341 8.34032C19.919 7.90899 19.3467 7.66667 18.75 7.66667H13.5ZM13.5 9.2V21.4667H19.5V9.96667C19.5 9.76333 19.421 9.56833 19.2803 9.42455C19.1397 9.28077 18.9489 9.2 18.75 9.2H13.5Z" fill="black"/>
<path d="M3.0975 19.9271C2.94217 19.9479 2.78438 19.9184 2.64627 19.8428C2.50816 19.7672 2.39667 19.6494 2.32744 19.5057C2.25822 19.3621 2.23473 19.1999 2.26028 19.0419C2.28583 18.8839 2.35914 18.738 2.46991 18.6248C2.58068 18.5116 2.72336 18.4366 2.87791 18.4105C3.03247 18.3844 3.19114 18.4084 3.33167 18.4792C3.4722 18.5499 3.58752 18.6639 3.66145 18.8051C3.73539 18.9463 3.76422 19.1075 3.74391 19.2663C3.72247 19.4339 3.64747 19.5895 3.53057 19.709C3.41367 19.8285 3.26142 19.9052 3.0975 19.9271ZM3.0975 16.0938C2.94217 16.1145 2.78438 16.0851 2.64627 16.0095C2.50816 15.9339 2.39667 15.816 2.32744 15.6724C2.25822 15.5287 2.23473 15.3665 2.26028 15.2085C2.28583 15.0505 2.35914 14.9047 2.46991 14.7915C2.58068 14.6782 2.72336 14.6033 2.87791 14.5772C3.03247 14.5511 3.19114 14.5751 3.33167 14.6458C3.4722 14.7166 3.58752 14.8306 3.66145 14.9717C3.73539 15.1129 3.76422 15.2742 3.74391 15.433C3.72247 15.6006 3.64747 15.7562 3.53057 15.8757C3.41367 15.9952 3.26142 16.0719 3.0975 16.0938ZM3.0975 12.2604C2.94217 12.2812 2.78438 12.2517 2.64627 12.1762C2.50816 12.1006 2.39667 11.9827 2.32744 11.839C2.25822 11.6954 2.23473 11.5332 2.26028 11.3752C2.28583 11.2172 2.35914 11.0714 2.46991 10.9581C2.58068 10.8449 2.72336 10.77 2.87791 10.7438C3.03247 10.7177 3.19114 10.7417 3.33167 10.8125C3.4722 10.8833 3.58752 10.9972 3.66145 11.1384C3.73539 11.2796 3.76422 11.4409 3.74391 11.5997C3.72247 11.7672 3.64747 11.9229 3.53057 12.0424C3.41367 12.1619 3.26142 12.2385 3.0975 12.2604ZM3.0975 8.4271C2.94217 8.44787 2.78438 8.4184 2.64627 8.34282C2.50816 8.26724 2.39667 8.14936 2.32744 8.00571C2.25822 7.86206 2.23473 7.69985 2.26028 7.54186C2.28583 7.38387 2.35914 7.23803 2.46991 7.1248C2.58068 7.01156 2.72336 6.93663 2.87791 6.91051C3.03247 6.88439 3.19114 6.9084 3.33167 6.97916C3.4722 7.04993 3.58752 7.1639 3.66145 7.30507C3.73539 7.44625 3.76422 7.60755 3.74391 7.76633C3.72247 7.9339 3.64747 8.08953 3.53057 8.20903C3.41367 8.32852 3.26142 8.40519 3.0975 8.4271ZM3.0975 4.59377C2.94217 4.61454 2.78438 4.58506 2.64627 4.50949C2.50816 4.43391 2.39667 4.31602 2.32744 4.17237C2.25822 4.02872 2.23473 3.86652 2.26028 3.70853C2.28583 3.55054 2.35914 3.40469 2.46991 3.29146C2.58068 3.17823 2.72336 3.1033 2.87791 3.07718C3.03247 3.05106 3.19114 3.07507 3.33167 3.14583C3.4722 3.2166 3.58752 3.33056 3.66145 3.47174C3.73539 3.61292 3.76422 3.77422 3.74391 3.933C3.72247 4.10057 3.64747 4.2562 3.53057 4.37569C3.41367 4.49519 3.26142 4.57186 3.0975 4.59377ZM6.8475 16.0938C6.69217 16.1145 6.53438 16.0851 6.39627 16.0095C6.25816 15.9339 6.14667 15.816 6.07744 15.6724C6.00822 15.5287 5.98473 15.3665 6.01028 15.2085C6.03583 15.0505 6.10914 14.9047 6.21991 14.7915C6.33068 14.6782 6.47335 14.6033 6.62791 14.5772C6.78247 14.5511 6.94114 14.5751 7.08167 14.6458C7.2222 14.7166 7.33752 14.8306 7.41145 14.9717C7.48539 15.1129 7.51422 15.2742 7.49391 15.433C7.47247 15.6006 7.39747 15.7562 7.28057 15.8757C7.16367 15.9952 7.01142 16.0719 6.8475 16.0938ZM6.8475 12.2604C6.69217 12.2812 6.53438 12.2517 6.39627 12.1762C6.25816 12.1006 6.14667 11.9827 6.07744 11.839C6.00822 11.6954 5.98473 11.5332 6.01028 11.3752C6.03583 11.2172 6.10914 11.0714 6.21991 10.9581C6.33068 10.8449 6.47335 10.77 6.62791 10.7438C6.78247 10.7177 6.94114 10.7417 7.08167 10.8125C7.2222 10.8833 7.33752 10.9972 7.41145 11.1384C7.48539 11.2796 7.51422 11.4409 7.49391 11.5997C7.47247 11.7672 7.39747 11.9229 7.28057 12.0424C7.16367 12.1619 7.01142 12.2385 6.8475 12.2604ZM6.8475 8.4271C6.69217 8.44787 6.53438 8.4184 6.39627 8.34282C6.25816 8.26724 6.14667 8.14936 6.07744 8.00571C6.00822 7.86206 5.98473 7.69985 6.01028 7.54186C6.03583 7.38387 6.10914 7.23803 6.21991 7.1248C6.33068 7.01156 6.47335 6.93663 6.62791 6.91051C6.78247 6.88439 6.94114 6.9084 7.08167 6.97916C7.2222 7.04993 7.33752 7.1639 7.41145 7.30507C7.48539 7.44625 7.51422 7.60755 7.49391 7.76633C7.47247 7.9339 7.39747 8.08953 7.28057 8.20903C7.16367 8.32852 7.01142 8.40519 6.8475 8.4271ZM6.8475 4.59377C6.69217 4.61454 6.53438 4.58506 6.39627 4.50949C6.25816 4.43391 6.14667 4.31602 6.07744 4.17237C6.00822 4.02872 5.98473 3.86652 6.01028 3.70853C6.03583 3.55054 6.10914 3.40469 6.21991 3.29146C6.33068 3.17823 6.47335 3.1033 6.62791 3.07718C6.78247 3.05106 6.94114 3.07507 7.08167 3.14583C7.2222 3.2166 7.33752 3.33056 7.41145 3.47174C7.48539 3.61292 7.51422 3.77422 7.49391 3.933C7.47247 4.10057 7.39747 4.2562 7.28057 4.37569C7.16367 4.49519 7.01142 4.57186 6.8475 4.59377ZM10.5975 19.9271C10.4422 19.9479 10.2844 19.9184 10.1463 19.8428C10.0082 19.7672 9.89667 19.6494 9.82744 19.5057C9.75822 19.3621 9.73473 19.1999 9.76028 19.0419C9.78583 18.8839 9.85914 18.738 9.96991 18.6248C10.0807 18.5116 10.2234 18.4366 10.3779 18.4105C10.5325 18.3844 10.6911 18.4084 10.8317 18.4792C10.9722 18.5499 11.0875 18.6639 11.1615 18.8051C11.2354 18.9463 11.2642 19.1075 11.2439 19.2663C11.2225 19.4339 11.1475 19.5895 11.0306 19.709C10.9137 19.8285 10.7614 19.9052 10.5975 19.9271ZM10.5975 16.0938C10.4422 16.1145 10.2844 16.0851 10.1463 16.0095C10.0082 15.9339 9.89667 15.816 9.82744 15.6724C9.75822 15.5287 9.73473 15.3665 9.76028 15.2085C9.78583 15.0505 9.85914 14.9047 9.96991 14.7915C10.0807 14.6782 10.2234 14.6033 10.3779 14.5772C10.5325 14.5511 10.6911 14.5751 10.8317 14.6458C10.9722 14.7166 11.0875 14.8306 11.1615 14.9717C11.2354 15.1129 11.2642 15.2742 11.2439 15.433C11.2225 15.6006 11.1475 15.7562 11.0306 15.8757C10.9137 15.9952 10.7614 16.0719 10.5975 16.0938ZM10.5975 12.2604C10.4422 12.2812 10.2844 12.2517 10.1463 12.1762C10.0082 12.1006 9.89667 11.9827 9.82744 11.839C9.75822 11.6954 9.73473 11.5332 9.76028 11.3752C9.78583 11.2172 9.85914 11.0714 9.96991 10.9581C10.0807 10.8449 10.2234 10.77 10.3779 10.7438C10.5325 10.7177 10.6911 10.7417 10.8317 10.8125C10.9722 10.8833 11.0875 10.9972 11.1615 11.1384C11.2354 11.2796 11.2642 11.4409 11.2439 11.5997C11.2225 11.7672 11.1475 11.9229 11.0306 12.0424C10.9137 12.1619 10.7614 12.2385 10.5975 12.2604Z" fill="black"/>
<path d="M11.0313 8.2094C11.3233 7.91094 11.3221 7.42581 11.0287 7.12585C10.7352 6.82589 10.2606 6.82467 9.96867 7.12314C9.67669 7.42161 9.67788 7.90673 9.97132 8.20669C10.2648 8.50666 10.7393 8.50787 11.0313 8.2094Z" fill="black"/>
<path d="M10.5975 4.59377C10.4422 4.61454 10.2844 4.58506 10.1463 4.50949C10.0082 4.43391 9.89667 4.31602 9.82744 4.17237C9.75822 4.02872 9.73473 3.86652 9.76028 3.70853C9.78583 3.55054 9.85914 3.40469 9.96991 3.29146C10.0807 3.17823 10.2234 3.1033 10.3779 3.07718C10.5325 3.05106 10.6911 3.07507 10.8317 3.14583C10.9722 3.2166 11.0875 3.33056 11.1615 3.47174C11.2354 3.61292 11.2642 3.77422 11.2439 3.933C11.2225 4.10057 11.1475 4.2562 11.0306 4.37569C10.9137 4.49519 10.7614 4.57186 10.5975 4.59377ZM17.25 18.4C17.1017 18.4 16.9567 18.445 16.8333 18.5292C16.71 18.6134 16.6139 18.7332 16.5571 18.8733C16.5003 19.0134 16.4855 19.1675 16.5144 19.3162C16.5434 19.465 16.6148 19.6016 16.7197 19.7088C16.8246 19.816 16.9582 19.889 17.1037 19.9186C17.2492 19.9482 17.4 19.933 17.537 19.875C17.6741 19.8169 17.7912 19.7187 17.8736 19.5926C17.956 19.4665 18 19.3183 18 19.1667C18 18.9633 17.921 18.7683 17.7803 18.6245C17.6397 18.4808 17.4489 18.4 17.25 18.4ZM17.25 14.5667C17.1017 14.5667 16.9567 14.6116 16.8333 14.6959C16.71 14.7801 16.6139 14.8999 16.5571 15.0399C16.5003 15.18 16.4855 15.3342 16.5144 15.4829C16.5434 15.6316 16.6148 15.7682 16.7197 15.8754C16.8246 15.9827 16.9582 16.0557 17.1037 16.0853C17.2492 16.1149 17.4 16.0997 17.537 16.0416C17.6741 15.9836 17.7912 15.8853 17.8736 15.7593C17.956 15.6332 18 15.485 18 15.3333C18 15.13 17.921 14.935 17.7803 14.7912C17.6397 14.6474 17.4489 14.5667 17.25 14.5667ZM17.25 10.7333C17.1017 10.7333 16.9567 10.7783 16.8333 10.8625C16.71 10.9468 16.6139 11.0665 16.5571 11.2066C16.5003 11.3467 16.4855 11.5009 16.5144 11.6496C16.5434 11.7983 16.6148 11.9349 16.7197 12.0421C16.8246 12.1493 16.9582 12.2224 17.1037 12.2519C17.2492 12.2815 17.4 12.2663 17.537 12.2083C17.6741 12.1503 17.7912 12.052 17.8736 11.9259C17.956 11.7999 18 11.6516 18 11.5C18 11.2967 17.921 11.1017 17.7803 10.9579C17.6397 10.8141 17.4489 10.7333 17.25 10.7333ZM14.25 18.4C14.1017 18.4 13.9567 18.445 13.8333 18.5292C13.71 18.6134 13.6139 18.7332 13.5571 18.8733C13.5003 19.0134 13.4855 19.1675 13.5144 19.3162C13.5434 19.465 13.6148 19.6016 13.7197 19.7088C13.8246 19.816 13.9582 19.889 14.1037 19.9186C14.2492 19.9482 14.4 19.933 14.537 19.875C14.6741 19.8169 14.7912 19.7187 14.8736 19.5926C14.956 19.4665 15 19.3183 15 19.1667C15 18.9633 14.921 18.7683 14.7803 18.6245C14.6397 18.4808 14.4489 18.4 14.25 18.4ZM14.25 14.5667C14.1017 14.5667 13.9567 14.6116 13.8333 14.6959C13.71 14.7801 13.6139 14.8999 13.5571 15.0399C13.5003 15.18 13.4855 15.3342 13.5144 15.4829C13.5434 15.6316 13.6148 15.7682 13.7197 15.8754C13.8246 15.9827 13.9582 16.0557 14.1037 16.0853C14.2492 16.1149 14.4 16.0997 14.537 16.0416C14.6741 15.9836 14.7912 15.8853 14.8736 15.7593C14.956 15.6332 15 15.485 15 15.3333C15 15.13 14.921 14.935 14.7803 14.7912C14.6397 14.6474 14.4489 14.5667 14.25 14.5667ZM14.25 10.7333C14.1017 10.7333 13.9567 10.7783 13.8333 10.8625C13.71 10.9468 13.6139 11.0665 13.5571 11.2066C13.5003 11.3467 13.4855 11.5009 13.5144 11.6496C13.5434 11.7983 13.6148 11.9349 13.7197 12.0421C13.8246 12.1493 13.9582 12.2224 14.1037 12.2519C14.2492 12.2815 14.4 12.2663 14.537 12.2083C14.6741 12.1503 14.7912 12.052 14.8736 11.9259C14.956 11.7999 15 11.6516 15 11.5C15 11.2967 14.921 11.1017 14.7803 10.9579C14.6397 10.8141 14.4489 10.7333 14.25 10.7333Z" fill="black"/>
</svg>
