<svg width="21" height="21" viewBox="0 0 21 21" fill="none" xmlns="http://www.w3.org/2000/svg">
<path fill-rule="evenodd" clip-rule="evenodd" d="M4.91607 0.333076C5.07331 0.456564 5.2499 0.622701 5.45307 0.823369C5.88835 1.25176 6.39334 1.93812 6.82666 2.59702C7.26483 3.26331 7.67086 3.96471 7.89843 4.45291L7.89858 4.45322L7.89872 4.45353C8.02771 4.73092 8.14398 4.98228 8.2257 5.20258C8.30869 5.42631 8.37766 5.67239 8.3781 5.94093C8.37903 6.50306 8.07392 6.9369 7.78002 7.33705C7.69558 7.45201 7.62384 7.54621 7.562 7.6274C7.42872 7.80241 7.34135 7.91714 7.2714 8.04982C7.20317 8.17925 7.18326 8.2727 7.21555 8.42313C7.26212 8.64005 7.46457 9.11487 7.85768 9.73602C8.23786 10.3367 8.75839 11.0143 9.38031 11.6342C10.0021 12.254 10.6689 12.7608 11.2577 13.1275C11.8644 13.5054 12.3316 13.6994 12.5547 13.747C12.71 13.7801 12.807 13.7594 12.9367 13.6919C13.0735 13.6207 13.1952 13.5277 13.3845 13.3832C13.4589 13.3265 13.5437 13.2617 13.644 13.1872L13.6441 13.1871L13.6517 13.1814C14.0532 12.8831 14.4994 12.5517 15.0648 12.5523C15.3442 12.5526 15.595 12.6315 15.8158 12.7216C16.0267 12.8077 16.2691 12.9298 16.535 13.0637L16.5572 13.0749C17.0232 13.3099 17.716 13.7079 18.3867 14.1418C19.0456 14.5681 19.7408 15.0656 20.1737 15.5018L20.1743 15.5024C20.3755 15.7057 20.5421 15.8822 20.6659 16.0394C20.7857 16.1916 20.9173 16.3884 20.9727 16.6332C21.0352 16.9089 20.9786 17.1384 20.9205 17.2975C20.8943 17.3692 20.8634 17.4381 20.8413 17.4874C20.8378 17.4951 20.8344 17.5026 20.8311 17.5099C20.8105 17.5556 20.7926 17.5955 20.7735 17.6411L20.773 17.6422L20.7725 17.6433C20.5766 18.1079 20.3383 18.5534 20.0606 18.9743L20.0598 18.9755L20.059 18.9768C19.5163 19.7919 19.0059 20.3245 18.2124 20.6941C17.8001 20.8862 17.211 21.0801 16.2954 20.966C15.4148 20.8562 14.2691 20.4663 12.7054 19.5905L12.705 19.5903C10.2028 18.187 8.46658 16.9772 6.2269 14.7439C3.99379 12.5171 2.89617 11.0637 1.35857 8.27051C-0.189355 5.45855 -0.187138 3.7245 0.254913 2.77992C0.62607 1.98683 1.16403 1.47874 1.9765 0.938976L1.9781 0.937913L1.97971 0.936858C2.40102 0.660061 2.84679 0.422426 3.31144 0.226932L3.31297 0.226287L3.31451 0.225649C3.36049 0.206542 3.40071 0.188513 3.4467 0.167899C3.45391 0.164667 3.46126 0.161371 3.4688 0.157997C3.51821 0.135886 3.58712 0.105146 3.65881 0.0791038C3.81773 0.0213802 4.04671 -0.0350051 4.32197 0.0270609C4.5667 0.0822437 4.76359 0.213329 4.91607 0.333076ZM3.89175 1.61007C3.5126 1.76969 3.14882 1.9636 2.80495 2.18939C2.11859 2.64557 1.82435 2.96511 1.61349 3.41568C1.47336 3.71511 1.21402 4.8975 2.67262 7.54719C4.14155 10.2156 5.15328 11.555 7.28606 13.6818C9.41216 15.8019 11.033 16.9329 13.4384 18.2819C14.9103 19.1062 15.8646 19.4007 16.481 19.4776C17.0625 19.5501 17.3675 19.433 17.5791 19.3345C18.0331 19.1229 18.3541 18.8308 18.8096 18.1468C19.0359 17.8035 19.2302 17.4402 19.3901 17.0613C19.4116 17.0098 19.4328 16.9621 19.4506 16.9224C19.3807 16.8394 19.2736 16.7246 19.1088 16.5581C18.7972 16.2443 18.219 15.8198 17.5719 15.4012C16.9366 14.9901 16.2908 14.6205 15.8821 14.4143C15.5871 14.2657 15.3981 14.1712 15.2489 14.1103C15.1038 14.051 15.0616 14.0522 15.0633 14.0522C15.0768 14.0522 15.0305 14.0257 14.5387 14.3911C14.4884 14.4284 14.4341 14.4701 14.3766 14.5141C14.1575 14.6821 13.8922 14.8855 13.6293 15.0224C13.2364 15.2268 12.7854 15.3299 12.2419 15.2139C11.7661 15.1125 11.1245 14.8117 10.4646 14.4007C9.78685 13.9785 9.02939 13.4023 8.32135 12.6965C7.61345 11.9909 7.02446 11.2243 6.59019 10.5381C6.16886 9.87239 5.85194 9.21757 5.74898 8.73795C5.63175 8.19185 5.73863 7.74087 5.9445 7.35036C6.07716 7.09871 6.27548 6.83869 6.4387 6.62469C6.48672 6.56173 6.53171 6.50275 6.57109 6.44914C6.88637 6.01986 6.87897 5.95143 6.87817 5.94397C6.87814 5.94372 6.87812 5.94354 6.87812 5.94342C6.8781 5.92897 6.87476 5.8736 6.81936 5.72424C6.76269 5.57149 6.67449 5.37819 6.53868 5.08615C6.35322 4.68842 5.98969 4.05419 5.57339 3.42117C5.15227 2.78081 4.71791 2.20427 4.40052 1.89202L4.39999 1.89149L4.39945 1.89096C4.23197 1.72554 4.11679 1.61834 4.03364 1.54855C3.99323 1.56661 3.94454 1.58811 3.89175 1.61007Z" fill="black"/>
</svg>
