<svg width="32" height="25" viewBox="0 0 32 25" fill="none" xmlns="http://www.w3.org/2000/svg">
<path d="M28 0H4C2.93948 0.001128 1.92273 0.420523 1.17283 1.16616C0.422926 1.9118 0.00113445 2.92278 0 3.97727V21.0227C0.00113445 22.0772 0.422926 23.0882 1.17283 23.8338C1.92273 24.5795 2.93948 24.9989 4 25H28C29.0605 24.9989 30.0773 24.5795 30.8272 23.8338C31.5771 23.0882 31.9989 22.0772 32 21.0227V3.97727C31.9989 2.92278 31.5771 1.9118 30.8272 1.16616C30.0773 0.420523 29.0605 0.001128 28 0ZM26.9871 6.57884L16.7014 14.5334C16.5009 14.6884 16.254 14.7726 16 14.7726C15.746 14.7726 15.4991 14.6884 15.2986 14.5334L5.01286 6.57884C4.89201 6.48809 4.7905 6.37437 4.71424 6.24429C4.63797 6.1142 4.58847 5.97034 4.56861 5.82107C4.54874 5.67179 4.55891 5.52008 4.59852 5.37475C4.63814 5.22942 4.7064 5.09336 4.79936 4.97449C4.89231 4.85562 5.0081 4.7563 5.13999 4.68231C5.27188 4.60831 5.41724 4.56112 5.56763 4.54347C5.71802 4.52582 5.87044 4.53807 6.01603 4.5795C6.16162 4.62093 6.29748 4.69071 6.41571 4.7848L16 12.1967L25.5843 4.7848C25.8239 4.60485 26.1252 4.52592 26.4229 4.56509C26.7207 4.60426 26.9909 4.75838 27.1753 4.99412C27.3596 5.22986 27.4432 5.52828 27.408 5.82483C27.3728 6.12138 27.2216 6.39224 26.9871 6.57884Z" fill="black"/>
</svg>
