<svg width="21" height="16" viewBox="0 0 21 16" fill="none" xmlns="http://www.w3.org/2000/svg">
<path fill-rule="evenodd" clip-rule="evenodd" d="M3.375 1.45455C2.33947 1.45455 1.5 2.26857 1.5 3.27273V12.7273C1.5 13.7314 2.33947 14.5455 3.375 14.5455H17.625C18.6605 14.5455 19.5 13.7314 19.5 12.7273V3.27273C19.5 2.26857 18.6605 1.45455 17.625 1.45455H3.375ZM0 3.27273C0 1.46525 1.51104 0 3.375 0H17.625C19.489 0 21 1.46525 21 3.27273V12.7273C21 14.5347 19.489 16 17.625 16H3.375C1.51104 16 0 14.5347 0 12.7273V3.27273Z" fill="black"/>
<path fill-rule="evenodd" clip-rule="evenodd" d="M20.25 6.45455H0.75V3.72727H20.25V6.45455ZM3.09375 10C3.09375 9.24688 3.72335 8.63636 4.5 8.63636H6.75C7.52665 8.63636 8.15625 9.24688 8.15625 10V10.9091C8.15625 11.6622 7.52665 12.2727 6.75 12.2727H4.5C3.72335 12.2727 3.09375 11.6622 3.09375 10.9091V10Z" fill="black"/>
</svg>
