<svg width="21" height="21" viewBox="0 0 21 21" fill="none" xmlns="http://www.w3.org/2000/svg">
<path d="M8.36719 9.84375H2.78906C2.39745 9.84375 2.02188 9.68818 1.74498 9.41127C1.46807 9.13437 1.3125 8.7588 1.3125 8.36719V2.78906C1.3125 2.39745 1.46807 2.02188 1.74498 1.74498C2.02188 1.46807 2.39745 1.3125 2.78906 1.3125H8.36719C8.7588 1.3125 9.13437 1.46807 9.41127 1.74498C9.68818 2.02188 9.84375 2.39745 9.84375 2.78906V8.36719C9.84375 8.7588 9.68818 9.13437 9.41127 9.41127C9.13437 9.68818 8.7588 9.84375 8.36719 9.84375ZM18.2109 9.84375H12.6328C12.2412 9.84375 11.8656 9.68818 11.5887 9.41127C11.3118 9.13437 11.1562 8.7588 11.1562 8.36719V2.78906C11.1562 2.39745 11.3118 2.02188 11.5887 1.74498C11.8656 1.46807 12.2412 1.3125 12.6328 1.3125H18.2109C18.6025 1.3125 18.9781 1.46807 19.255 1.74498C19.5319 2.02188 19.6875 2.39745 19.6875 2.78906V8.36719C19.6875 8.7588 19.5319 9.13437 19.255 9.41127C18.9781 9.68818 18.6025 9.84375 18.2109 9.84375ZM8.36719 19.6875H2.78906C2.39745 19.6875 2.02188 19.5319 1.74498 19.255C1.46807 18.9781 1.3125 18.6025 1.3125 18.2109V12.6328C1.3125 12.2412 1.46807 11.8656 1.74498 11.5887C2.02188 11.3118 2.39745 11.1562 2.78906 11.1562H8.36719C8.7588 11.1562 9.13437 11.3118 9.41127 11.5887C9.68818 11.8656 9.84375 12.2412 9.84375 12.6328V18.2109C9.84375 18.6025 9.68818 18.9781 9.41127 19.255C9.13437 19.5319 8.7588 19.6875 8.36719 19.6875ZM18.2109 19.6875H12.6328C12.2412 19.6875 11.8656 19.5319 11.5887 19.255C11.3118 18.9781 11.1562 18.6025 11.1562 18.2109V12.6328C11.1562 12.2412 11.3118 11.8656 11.5887 11.5887C11.8656 11.3118 12.2412 11.1562 12.6328 11.1562H18.2109C18.6025 11.1562 18.9781 11.3118 19.255 11.5887C19.5319 11.8656 19.6875 12.2412 19.6875 12.6328V18.2109C19.6875 18.6025 19.5319 18.9781 19.255 19.255C18.9781 19.5319 18.6025 19.6875 18.2109 19.6875Z" fill="#191919"/>
</svg>
