<svg width="21" height="21" viewBox="0 0 21 21" fill="none" xmlns="http://www.w3.org/2000/svg">
<path fill-rule="evenodd" clip-rule="evenodd" d="M1.0784e-05 10.4995C0.000305827 4.70049 4.70098 0 10.5 0C10.9142 0 11.25 0.335786 11.25 0.75V1.5C16.633 1.5 21 5.86704 21 11.25C21 16.633 16.633 21 11.25 21H11.25C9.18451 20.9999 7.1724 20.3442 5.50349 19.1273C4.06054 18.0751 2.93857 16.6504 2.25298 15.0129L1.90437 15.1689C1.52631 15.3381 1.08266 15.1689 0.913431 14.7908C0.309199 13.4409 -0.00211205 11.9784 1.0784e-05 10.4995ZM2.41948 13.295C2.38579 13.3073 2.35348 13.3218 2.32267 13.3383L2.00479 13.4806C1.66978 12.5249 1.49849 11.5175 1.50001 10.5011L1.50001 10.5C1.50001 5.78178 5.13017 1.91188 9.75001 1.5308V10.014L2.41948 13.295ZM3.62258 14.3999C4.2014 15.7998 5.15631 17.0177 6.38725 17.9153C7.7995 18.945 9.50218 19.4999 11.25 19.5M3.62258 14.3999L10.8064 11.1846C11.0763 11.0638 11.25 10.7957 11.25 10.5V3C15.8045 3 19.5 6.69546 19.5 11.25C19.5 15.8045 15.8046 19.5 11.25 19.5" fill="black"/>
</svg>
