<svg width="20" height="21" viewBox="0 0 20 21" fill="none" xmlns="http://www.w3.org/2000/svg">
<path fill-rule="evenodd" clip-rule="evenodd" d="M8.07563 0.0001637C8.08066 5.45522e-05 8.08571 0 8.09075 0H11.9093C11.9134 0 11.9175 3.64407e-05 11.9216 0.000109279C12.1966 0.00497488 12.4618 0.105492 12.6734 0.285103C12.8851 0.464713 13.0306 0.712701 13.086 0.988208C13.0891 1.00329 13.0916 1.01847 13.0937 1.03372L13.3934 3.21435L13.3934 3.21452C13.3934 3.21464 13.3935 3.21475 13.3935 3.21487C13.3936 3.2152 13.3938 3.21551 13.394 3.21579C13.3943 3.21621 13.3947 3.21655 13.3951 3.21678L13.3987 3.21852C13.7664 3.40005 14.1194 3.61142 14.4541 3.85059L16.4579 3.02571C16.462 3.02399 16.4662 3.02232 16.4704 3.02069C16.7338 2.91812 17.0241 2.91389 17.2902 3.00876C17.5563 3.10362 17.7812 3.29148 17.9252 3.53925C17.9266 3.54178 17.9281 3.54433 17.9295 3.54688L19.8378 6.92342C19.838 6.92382 19.8383 6.92422 19.8385 6.92463C19.9804 7.17482 20.0311 7.46836 19.9814 7.75316C19.9317 8.0384 19.7847 8.29636 19.5664 8.48109C19.5617 8.48508 19.5569 8.48902 19.5521 8.49289L17.8473 9.86171L17.8473 9.86176C17.847 9.86198 17.8468 9.86227 17.8467 9.8626C17.8465 9.86295 17.8465 9.86333 17.8465 9.86371C17.8468 9.8667 17.847 9.86969 17.8472 9.87268C17.8629 10.0742 17.8741 10.2844 17.8741 10.5L17.874 10.5043C17.8728 10.7119 17.8635 10.9193 17.8461 11.1261L19.5505 12.4932C19.5555 12.4973 19.5606 12.5014 19.5655 12.5056C19.7835 12.6903 19.9303 12.9481 19.98 13.2332C20.0296 13.518 19.979 13.8115 19.8371 14.0618C19.837 14.062 19.8369 14.0622 19.8367 14.0624L17.9282 17.4394C17.9268 17.4418 17.9255 17.4442 17.9241 17.4465C17.7803 17.6945 17.5556 17.8826 17.2894 17.9776C17.0233 18.0727 16.7329 18.0687 16.4694 17.9662C16.465 17.9645 16.4607 17.9628 16.4564 17.961L14.4547 17.1367L14.4545 17.1366C14.4538 17.1364 14.453 17.1363 14.4523 17.1364C14.4515 17.1365 14.4507 17.1368 14.4501 17.1372L14.4468 17.1396C14.1117 17.3755 13.7597 17.5852 13.3937 17.7667L13.0933 19.9526C13.0922 19.9606 13.091 19.9687 13.0896 19.9767C13.0414 20.2589 12.8988 20.5152 12.6863 20.7018C12.4737 20.8884 12.2044 20.9938 11.9244 20.9998C11.9193 20.9999 11.9143 21 11.9093 21H8.09075C8.08663 21 8.08251 21 8.07839 20.9999C7.80339 20.995 7.53822 20.8945 7.32655 20.7149C7.11489 20.5353 6.96936 20.2873 6.91395 20.0118C6.91092 19.9967 6.90835 19.9815 6.90625 19.9663L6.60662 17.7857L6.60659 17.7855C6.6065 17.785 6.60632 17.7846 6.60604 17.7842C6.60573 17.7838 6.60533 17.7834 6.60487 17.7832L6.60132 17.7815C6.23357 17.5999 5.88064 17.3886 5.5459 17.1494L3.54214 17.9743C3.53798 17.976 3.5338 17.9777 3.52961 17.9793C3.26623 18.0819 2.97591 18.0861 2.70979 17.9912C2.44367 17.8964 2.21882 17.7085 2.07485 17.4608C2.07338 17.4582 2.07192 17.4557 2.07047 17.4531L0.162196 14.0766C0.162009 14.0763 0.161821 14.0759 0.161634 14.0756C0.0196225 13.8253 -0.0310805 13.5317 0.0185533 13.2468C0.0682522 12.9616 0.215326 12.7036 0.433591 12.5189C0.438311 12.5149 0.443082 12.511 0.447901 12.5071L2.1506 11.14L2.15075 11.1398C2.15097 11.1396 2.15114 11.1394 2.15126 11.1391C2.15141 11.1387 2.15147 11.1383 2.15143 11.138C2.15132 11.1368 2.15121 11.1356 2.15111 11.1344L2.15091 11.1321C2.13351 10.9259 2.12238 10.7145 2.12238 10.4986C2.12238 10.2851 2.13282 10.0772 2.1508 9.87321L2.15033 9.87284L0.445526 8.50327C0.438775 8.49785 0.43212 8.4923 0.425564 8.48663C0.210961 8.30105 0.0670644 8.04416 0.0190899 7.76096C-0.028848 7.47798 0.022046 7.18678 0.162854 6.93831C0.162961 6.93813 0.163069 6.93794 0.163176 6.93775L2.07181 3.56057C2.07315 3.55821 2.0745 3.55585 2.07587 3.55349C2.21967 3.30552 2.44444 3.11743 2.71058 3.02235C2.97672 2.92728 3.26713 2.93133 3.53063 3.0338C3.53495 3.03549 3.53926 3.03721 3.54355 3.03898L5.54551 3.86339C5.54578 3.86348 5.54606 3.86356 5.54633 3.8636C5.54678 3.86368 5.54724 3.86369 5.54769 3.86364C5.54819 3.86358 5.54867 3.86344 5.54912 3.86324C5.5494 3.86311 5.54968 3.86295 5.54994 3.86277L5.55321 3.86045C5.88826 3.62449 6.24031 3.41483 6.60633 3.23325L6.9067 1.04742C6.90781 1.03936 6.90905 1.03133 6.91041 1.02331C6.95864 0.741118 7.1012 0.484809 7.31373 0.298191C7.52626 0.111572 7.79557 0.00622845 8.07563 0.0001637ZM8.2924 1.46087L8.02099 3.43599C8.02095 3.4363 8.02091 3.4366 8.02087 3.43691L8.02085 3.437C7.98849 3.67375 7.89969 3.89873 7.7623 4.09213C7.6247 4.28581 7.4426 4.44186 7.23206 4.54651L7.23139 4.54685C6.93017 4.69617 6.64045 4.86862 6.3647 5.0627C6.1706 5.20055 5.94617 5.28718 5.71139 5.31488C5.47583 5.34267 5.2372 5.31026 5.0169 5.22056L5.01432 5.2195L3.20521 4.47451L1.49963 7.49238L3.03227 8.72365C3.03243 8.72377 3.0326 8.7239 3.03276 8.72403M3.5739 11.0041C3.55929 10.8304 3.55086 10.6628 3.55086 10.4986C3.55086 10.3329 3.55901 10.1679 3.57383 10.0008L3.5742 9.99643C3.59419 9.75495 3.55512 9.51219 3.46051 9.29C3.36599 9.06801 3.219 8.87352 3.03276 8.72403M3.5739 11.0041C3.59562 11.2455 3.55835 11.4887 3.4654 11.7118C3.372 11.9359 3.22534 12.1327 3.03874 12.2842L3.03574 12.2866L1.49819 13.5211L3.20367 16.5388L5.01261 15.7942L5.01273 15.7941C5.23261 15.7036 5.47104 15.6706 5.70654 15.6978C5.94204 15.7251 6.16721 15.8118 6.36175 15.9502L6.36301 15.9511C6.63506 16.1456 6.9219 16.3175 7.22078 16.4651C7.4329 16.5688 7.6168 16.7243 7.75623 16.9179C7.89611 17.1121 7.98689 17.3387 8.02051 17.5774L8.02085 17.5799L8.29007 19.5391H11.7076L11.979 17.564C11.979 17.5637 11.9791 17.5634 11.9791 17.5632L11.9791 17.563C12.0115 17.3263 12.1003 17.1013 12.2377 16.9079C12.3753 16.7142 12.5574 16.5581 12.7679 16.4535L12.7686 16.4532C13.0698 16.3038 13.3595 16.1314 13.6353 15.9373C13.8294 15.7995 14.0538 15.7128 14.2886 15.6851C14.5242 15.6573 14.7628 15.6897 14.9831 15.7794L14.9857 15.7805L16.7948 16.5255L18.5004 13.5075L16.6507 12.0238C16.45 11.8629 16.3485 11.6047 16.3844 11.3464C16.4234 11.0653 16.4438 10.7818 16.4456 10.4979C16.4455 10.3345 16.4371 10.1669 16.4236 9.99242C16.4027 9.75119 16.4407 9.50841 16.5342 9.28587C16.6284 9.06169 16.7759 8.86516 16.9633 8.71416L16.9643 8.71342L18.5018 7.47886L16.7963 4.46116L14.9874 5.20584L14.9873 5.20589C14.7674 5.29635 14.529 5.32945 14.2935 5.30219C14.058 5.27494 13.8328 5.18819 13.6382 5.04976L13.637 5.04886C13.3649 4.85437 13.078 4.68247 12.7791 4.53482C12.567 4.43115 12.3832 4.27568 12.2438 4.08211C12.1039 3.88788 12.0131 3.66132 11.9795 3.42256L11.9791 3.4201L11.7099 1.46087H8.2924M8.24038 7.32194C8.88108 6.95093 9.61826 6.79151 10.351 6.86551L10.3522 6.86563C11.1732 6.94997 11.9405 7.32203 12.524 7.91876C13.1075 8.51548 13.4713 9.30018 13.5538 10.1399L13.5539 10.1411C13.6263 10.8904 13.4704 11.6443 13.1076 12.2995C12.7448 12.9548 12.1929 13.4793 11.5273 13.8013C10.8618 14.1234 10.1151 14.2271 9.38969 14.0985C8.66424 13.9698 7.99541 13.6149 7.47477 13.0825C6.95414 12.55 6.60716 11.866 6.48133 11.1241C6.3555 10.3822 6.45698 9.6187 6.77187 8.93806C7.08676 8.25742 7.59967 7.69295 8.24038 7.32194ZM10.2098 8.31923C9.77044 8.27502 9.32842 8.37069 8.94422 8.59316C8.5598 8.81577 8.25205 9.15445 8.06312 9.56284C7.87418 9.97122 7.8133 10.4293 7.88879 10.8745C7.96429 11.3196 8.17248 11.73 8.48486 12.0495C8.79724 12.369 9.19854 12.5819 9.63381 12.6591C10.0691 12.7363 10.5171 12.674 10.9164 12.4808C11.3157 12.2876 11.6469 11.9729 11.8646 11.5797C12.0821 11.1868 12.1756 10.7348 12.1324 10.2854C12.0828 9.78124 11.8643 9.31007 11.5139 8.95175C11.1635 8.59342 10.7028 8.36997 10.2098 8.31923Z" fill="black"/>
</svg>
