<svg width="22" height="20" viewBox="0 0 22 20" fill="none" xmlns="http://www.w3.org/2000/svg">
<path fill-rule="evenodd" clip-rule="evenodd" d="M2.35714 4.23077C2.79108 4.23077 3.14286 4.57517 3.14286 5V17.3064C3.14406 17.6124 3.26875 17.9055 3.48977 18.1219C3.71082 18.3383 4.01029 18.4604 4.32288 18.4615H17.6771C17.9897 18.4604 18.2892 18.3383 18.5102 18.1219C18.7313 17.9055 18.856 17.6123 18.8571 17.3063V5C18.8571 4.57517 19.2089 4.23077 19.6429 4.23077C20.0768 4.23077 20.4286 4.57517 20.4286 5V17.3077L20.4286 17.31C20.4264 18.0228 20.1362 18.7057 19.6214 19.2098C19.1066 19.7138 18.409 19.9979 17.6809 20L17.6786 20H4.32143L4.31908 20C3.59103 19.9979 2.89342 19.7138 2.3786 19.2098C1.86379 18.7057 1.57361 18.0228 1.57143 17.31L1.57143 17.3077V5C1.57143 4.57517 1.9232 4.23077 2.35714 4.23077Z" fill="#EB4335"/>
<path fill-rule="evenodd" clip-rule="evenodd" d="M2.16071 1.53846C1.83526 1.53846 1.57143 1.79676 1.57143 2.11538V3.26923C1.57143 3.58786 1.83526 3.84615 2.16071 3.84615H19.8393C20.1647 3.84615 20.4286 3.58786 20.4286 3.26923V2.11538C20.4286 1.79676 20.1647 1.53846 19.8393 1.53846H2.16071ZM0 2.11538C0 0.94709 0.967385 0 2.16071 0H19.8393C21.0326 0 22 0.94709 22 2.11538V3.26923C22 4.43753 21.0326 5.38462 19.8393 5.38462H2.16071C0.967385 5.38462 0 4.43753 0 3.26923V2.11538Z" fill="#EB4335"/>
<path fill-rule="evenodd" clip-rule="evenodd" d="M11 7.69231C11.4339 7.69231 11.7857 8.0367 11.7857 8.46154V13.5275L13.5873 11.7638C13.8941 11.4634 14.3916 11.4634 14.6984 11.7638C15.0053 12.0642 15.0053 12.5512 14.6984 12.8516L11.5556 15.9285C11.2487 16.2289 10.7513 16.2289 10.4444 15.9285L7.30156 12.8516C6.99472 12.5512 6.99472 12.0642 7.30156 11.7638C7.6084 11.4634 8.10589 11.4634 8.41273 11.7638L10.2143 13.5275V8.46154C10.2143 8.0367 10.5661 7.69231 11 7.69231Z" fill="#EB4335"/>
</svg>
